<?xml version="1.0" encoding="utf-8"?>
<!-- Generator: Adobe Illustrator 19.1.0, SVG Export Plug-In . SVG Version: 6.00 Build 0)  -->
<svg version="1.1" xmlns="http://www.w3.org/2000/svg" xmlns:xlink="http://www.w3.org/1999/xlink" x="0px" y="0px"
	 viewBox="0 0 128 128" style="enable-background:new 0 0 128 128;" xml:space="preserve">
<style type="text/css">
	.st0{display:none;}
	.st1{fill:url(#path3000_2_);}
	.st2{fill:url(#path3000_3_);}
	.st3{opacity:0.4;enable-background:new    ;}
	.st4{fill:none;stroke:#010101;stroke-width:4.134;stroke-linecap:round;stroke-miterlimit:2;}
	.st5{fill:#010101;}
	.st6{fill:none;stroke:#010101;stroke-width:4.817;stroke-linecap:round;stroke-miterlimit:2;}
	.st7{fill:none;stroke:#010101;stroke-width:5.4856;stroke-linecap:round;stroke-miterlimit:2;}
	.st8{fill:none;stroke:#F6F8EC;stroke-width:4.134;stroke-linecap:round;stroke-miterlimit:2;}
	.st9{fill:#F6F8EC;}
	.st10{fill:none;stroke:#F6F8EC;stroke-width:4.817;stroke-linecap:round;stroke-miterlimit:2;}
	.st11{fill:none;stroke:#F6F8EC;stroke-width:5.4856;stroke-linecap:round;stroke-miterlimit:2;}
</style>
<g id="Layer_1" class="st0">
</g>
<g id="Layer_2">
	<g id="layer2" transform="translate(0,-4)" inkscape:label="Ebene" inkscape:groupmode="layer">
		
			<linearGradient id="path3000_2_" gradientUnits="userSpaceOnUse" x1="123.7945" y1="251.1872" x2="123.7945" y2="320.6445" gradientTransform="matrix(1.4333 0 0 1.4333 -113.4347 -341.8075)">
			<stop  offset="0" style="stop-color:#1D75BC"/>
			<stop  offset="1" style="stop-color:#0D4672"/>
		</linearGradient>
		<path id="path3000" sodipodi:type="arc" sodipodi:rx="30" sodipodi:ry="30" sodipodi:cy="50" sodipodi:cx="-10" class="st1" d="
			M128,68c0,35.3-28.7,64-64,64S0,103.3,0,68S28.7,4,64,4S128,32.7,128,68z"/>
	</g>
	<g id="layer2_1_" transform="translate(0,-4)" inkscape:label="Ebene" inkscape:groupmode="layer">
		
			<linearGradient id="path3000_3_" gradientUnits="userSpaceOnUse" x1="123.7945" y1="251.1872" x2="123.7945" y2="320.6445" gradientTransform="matrix(1.4333 0 0 1.4333 -113.4347 -341.8075)">
			<stop  offset="0" style="stop-color:#C9DB47"/>
			<stop  offset="1" style="stop-color:#4A9D45"/>
		</linearGradient>
		
			<path id="path3000_1_" sodipodi:type="arc" sodipodi:rx="30" sodipodi:ry="30" sodipodi:cy="50" sodipodi:cx="-10" class="st2" d="
			M128,68c0,35.3-28.7,64-64,64S0,103.3,0,68C0,32.7,28.7,4,64,4S128,32.7,128,68z"/>
		<g id="path3832" sodipodi:nodetypes="cc" inkscape:connector-curvature="0" class="st3">
			<path class="st4" d="M48,64.7c16.8-3.2,32.6-3.3,48.4,6.6"/>
		</g>
		<g id="path3994" sodipodi:nodetypes="ccscssscssssssccssssssscssssssccc" inkscape:connector-curvature="0" class="st3">
			<path class="st5" d="M110.6,111.8c-0.8-3.8-0.2-2.7-1.2-6.3c-1-3.2-2.4-6.3-3.9-9c-1.6-2.7-3.4-5.2-5.4-7.5
				c-2.1-2.3-4.3-4.2-6.9-5.9s-5.3-3.1-8.3-4.2c-3-1.1-6.2-2-9.7-2.6c-3.5-0.6-7.1-0.8-11.1-0.8c-3.9,0-7.6,0.3-11.1,0.8
				c-3.5,0.6-6.7,1.4-9.7,2.5c-3,1.1-5.8,2.5-8.3,4.2c-2.6,1.7-4.9,3.7-7,5.9c-2.1,2.2-4,4.7-5.5,7.4c-1.6,2.7-2.9,5.7-3.9,9
				c-1,3.2-0.8,2.4-1.9,5.8c21.3-15.8,18.3,5,21.3,15.4c0-2.8,0.3-4.1,0.5-6.6c0.3-2.5,0.7-4.8,1.3-7c0.5-2.2,1.2-4.2,2-6
				c0.8-1.8,1.7-3.4,2.8-4.8c1.1-1.5,2.4-2.7,3.7-3.8c1.4-1.1,2.8-2,4.5-2.7c1.6-0.7,3.4-1.3,5.3-1.6c1.9-0.4,3.9-0.6,6-0.6
				c2.1,0,4.2,0.2,6,0.6c1.9,0.4,3.6,0.9,5.2,1.6s3.1,1.6,4.4,2.7c1.3,1.1,2.6,2.3,3.6,3.8c1.1,1.4,2,3,2.8,4.8c0.8,1.8,1.5,3.8,2,6
				c0.5,2.2,0.9,4.5,1.2,7c0.4,3.7,0.5,1.8,0.8,6.5C93.1,118.3,85.9,93.6,110.6,111.8z"/>
		</g>
		<g id="path3832-1" sodipodi:nodetypes="cc" inkscape:connector-curvature="0" class="st3">
			<path class="st6" d="M45,51.8c19.6-3.8,38-3.9,56.4,7.7"/>
		</g>
		<g id="path3832-1-5" sodipodi:nodetypes="cc" inkscape:connector-curvature="0" class="st3">
			<path class="st7" d="M41.8,38.1c22.3-4.3,43.3-4.4,64.3,8.7"/>
		</g>
	</g>
	<g id="layer1" inkscape:label="Ebene#1" inkscape:groupmode="layer">
		<path id="path3832-4" sodipodi:nodetypes="cc" inkscape:connector-curvature="0" class="st8" d="M48,59.2
			c16.8-3.2,32.6-3.3,48.4,6.6"/>
		<path id="path3994-2" sodipodi:nodetypes="ccscssscssssssccssssssscssssssccc" inkscape:connector-curvature="0" class="st9" d="
			M111.2,107.2c-0.8-3.8-0.8-3.6-1.7-7.2c-1-3.2-2.4-6.3-3.9-9c-1.6-2.7-3.4-5.2-5.4-7.5c-2.1-2.3-4.3-4.2-6.9-5.9s-5.3-3.1-8.3-4.2
			c-3-1.1-6.2-2-9.7-2.6c-3.5-0.6-7.1-0.8-11.1-0.8s-7.6,0.3-11.1,0.8c-3.5,0.6-6.7,1.4-9.7,2.5c-3,1.1-5.8,2.5-8.3,4.2
			c-2.6,1.7-4.9,3.7-7,5.9s-4,4.7-5.5,7.4c-1.6,2.7-2.9,5.7-3.9,9c-1,3.2-1.2,3.5-2.4,6.9c4.2,4.5,11.2,11.2,21.8,15.8
			c0-2.8,0.3-5.6,0.5-8.1c0.3-2.5,0.7-4.8,1.3-7c0.5-2.1,1.2-4.2,2-6c0.8-1.8,1.7-3.4,2.8-4.8c1.1-1.5,2.4-2.7,3.7-3.8
			c1.4-1.1,2.8-2,4.5-2.7c1.6-0.7,3.4-1.3,5.3-1.6c1.9-0.4,3.9-0.6,6-0.6c2.1,0,4.2,0.2,6,0.6c1.9,0.4,3.6,0.9,5.2,1.6
			c1.6,0.7,3.1,1.6,4.4,2.7c1.3,1.1,2.6,2.3,3.6,3.8c1.1,1.4,2,3,2.8,4.8c0.8,1.8,1.5,3.8,2,6c0.5,2.2,0.9,4.5,1.2,7
			c0.4,3.7,0.5,3.4,0.7,8.1C96.5,119.7,104.9,114.3,111.2,107.2z"/>
		<path id="path3832-1-3" sodipodi:nodetypes="cc" inkscape:connector-curvature="0" class="st10" d="M45,46.3
			c19.6-3.8,38-3.9,56.4,7.7"/>
		<path id="path3832-1-5-2" sodipodi:nodetypes="cc" inkscape:connector-curvature="0" class="st11" d="M41.8,32.6
			c22.3-4.3,43.3-4.4,64.3,8.7"/>
	</g>
</g>
</svg>
